<svg width="640" height="480" viewBox="0 0 640 480" fill="none" xmlns="http://www.w3.org/2000/svg">
  <rect width="640" height="480" rx="48" fill="url(#paint0_linear)"/>
  <g filter="url(#filter0_f)">
    <ellipse cx="480" cy="124" rx="120" ry="96" fill="#0D6EFD" fill-opacity="0.32"/>
  </g>
  <g filter="url(#filter1_f)">
    <ellipse cx="176" cy="368" rx="140" ry="104" fill="#20C997" fill-opacity="0.28"/>
  </g>
  <rect x="160" y="140" width="320" height="240" rx="32" fill="url(#paint1_linear)"/>
  <rect x="188" y="192" width="64" height="24" rx="12" fill="#EEF4FF"/>
  <rect x="188" y="240" width="264" height="16" rx="8" fill="#EEF4FF" fill-opacity="0.75"/>
  <rect x="188" y="272" width="192" height="16" rx="8" fill="#EEF4FF" fill-opacity="0.6"/>
  <rect x="188" y="304" width="224" height="16" rx="8" fill="#EEF4FF" fill-opacity="0.6"/>
  <rect x="188" y="156" width="264" height="24" rx="12" fill="#EEF4FF" fill-opacity="0.45"/>
  <circle cx="220" cy="168" r="8" fill="#0D6EFD"/>
  <circle cx="248" cy="168" r="8" fill="#845EF7"/>
  <circle cx="276" cy="168" r="8" fill="#20C997"/>
  <g transform="translate(404 308)">
    <rect x="-28" y="-28" width="96" height="96" rx="24" fill="url(#paint2_linear)"/>
    <path d="M8.8 45.5C17.7 45.5 25 38.2 25 29.3C25 20.4 17.7 13 8.8 13C-0.1 13 -7.5 20.4 -7.5 29.3C-7.5 38.2 -0.1 45.5 8.8 45.5Z" fill="white"/>
    <path d="M35.4 41.2L47.2 52.9C49.7 55.4 49.7 59.5 47.2 62C44.7 64.5 40.6 64.5 38.1 62L26.3 50.3" stroke="white" stroke-width="6" stroke-linecap="round"/>
  </g>
  <defs>
    <filter id="filter0_f" x="200" y="-96" width="560" height="440" filterUnits="userSpaceOnUse" color-interpolation-filters="sRGB">
      <feFlood flood-opacity="0" result="BackgroundImageFix"/>
      <feBlend mode="normal" in="SourceGraphic" in2="BackgroundImageFix" result="shape"/>
      <feGaussianBlur stdDeviation="60" result="effect1_foregroundBlur"/>
    </filter>
    <filter id="filter1_f" x="-104" y="164" width="560" height="408" filterUnits="userSpaceOnUse" color-interpolation-filters="sRGB">
      <feFlood flood-opacity="0" result="BackgroundImageFix"/>
      <feBlend mode="normal" in="SourceGraphic" in2="BackgroundImageFix" result="shape"/>
      <feGaussianBlur stdDeviation="60" result="effect1_foregroundBlur"/>
    </filter>
    <linearGradient id="paint0_linear" x1="64" y1="40" x2="640" y2="480" gradientUnits="userSpaceOnUse">
      <stop stop-color="#F0F6FF"/>
      <stop offset="1" stop-color="#E3F5FF"/>
    </linearGradient>
    <linearGradient id="paint1_linear" x1="160" y1="140" x2="520" y2="380" gradientUnits="userSpaceOnUse">
      <stop stop-color="#0D6EFD" stop-opacity="0.82"/>
      <stop offset="1" stop-color="#845EF7" stop-opacity="0.76"/>
    </linearGradient>
    <linearGradient id="paint2_linear" x1="-28" y1="-28" x2="68" y2="68" gradientUnits="userSpaceOnUse">
      <stop stop-color="#0D6EFD"/>
      <stop offset="1" stop-color="#20C997"/>
    </linearGradient>
  </defs>
</svg>

